<?xml version="1.0" encoding="UTF-8"?>
<!DOCTYPE svg PUBLIC "-//W3C//DTD SVG 1.1//EN" "http://www.w3.org/Graphics/SVG/1.1/DTD/svg11.dtd">
<svg xmlns="http://www.w3.org/2000/svg" version="1.1" width="225px" height="203px" style="shape-rendering:geometricPrecision; text-rendering:geometricPrecision; image-rendering:optimizeQuality; fill-rule:evenodd; clip-rule:evenodd" xmlns:xlink="http://www.w3.org/1999/xlink">
<g><path style="opacity:1" fill="#b8dba3" d="M 54.5,-0.5 C 92.8333,-0.5 131.167,-0.5 169.5,-0.5C 169.5,-0.166667 169.5,0.166667 169.5,0.5C 130.681,-0.140569 92.0145,0.526097 53.5,2.5C 53.5569,1.39105 53.8902,0.391047 54.5,-0.5 Z"/></g>
<g><path style="opacity:1" fill="#98d078" d="M 169.5,0.5 C 187.595,34.3615 205.929,68.0281 224.5,101.5C 224.5,102.833 224.5,104.167 224.5,105.5C 223.079,108.009 221.412,110.343 219.5,112.5C 217.113,114.244 215.446,116.578 214.5,119.5C 213.349,120.731 212.183,120.731 211,119.5C 210.873,120.777 211.373,121.943 212.5,123C 209.959,125.59 208.626,128.756 208.5,132.5C 195.5,155.833 182.5,179.167 169.5,202.5C 131.167,202.5 92.8333,202.5 54.5,202.5C 36.4048,168.639 18.0715,134.972 -0.5,101.5C -0.5,100.167 -0.5,98.8333 -0.5,97.5C 2.5,92.8333 5.5,88.1667 8.5,83.5C 10.178,82.2529 11.5113,80.5862 12.5,78.5C 13.4287,77.3112 13.762,75.9778 13.5,74.5C 26.3296,50.1699 39.6629,26.1699 53.5,2.5C 92.0145,0.526097 130.681,-0.140569 169.5,0.5 Z"/></g>
<g><path style="opacity:1" fill="#f8fcf6" d="M 119.5,39.5 C 114.684,38.3503 109.684,38.1837 104.5,39C 103.944,39.3826 103.611,39.8826 103.5,40.5C 101.956,40.7031 100.622,41.3698 99.5,42.5C 98.5935,39.5917 98.9268,36.7583 100.5,34C 97.6285,33.9217 94.7952,34.4217 92,35.5C 90.437,34.8979 90.6037,34.0646 92.5,33C 108.985,24.4984 124.318,26.1651 138.5,38C 140.527,40.0939 142.194,42.4272 143.5,45C 144.793,45.49 146.127,45.6567 147.5,45.5C 146.709,51.2048 145.709,56.8715 144.5,62.5C 143.127,62.6567 141.793,62.49 140.5,62C 137.299,58.4636 133.799,55.2969 130,52.5C 129.691,50.6086 130.525,49.2752 132.5,48.5C 128.966,44.242 124.633,41.242 119.5,39.5 Z"/></g>
<g><path style="opacity:1" fill="#f9fcf8" d="M 92.5,36.5 C 93.8333,36.5 95.1667,36.5 96.5,36.5C 96.4015,42.4612 95.0681,48.1278 92.5,53.5C 91.2638,52.7542 89.9305,52.4208 88.5,52.5C 84.8912,66.1491 89.2246,76.3158 101.5,83C 98.7021,84.5985 95.7021,85.7651 92.5,86.5C 93.982,88.4829 95.6487,90.3163 97.5,92C 89.6595,89.8464 83.8262,85.013 80,77.5C 74.9242,66.1313 75.4242,55.1313 81.5,44.5C 80.2634,43.7193 79.2634,42.7193 78.5,41.5C 83.5875,40.571 88.2542,38.9043 92.5,36.5 Z"/></g>
<g><path style="opacity:1" fill="#c4e4b1" d="M 119.5,39.5 C 114.105,39.2665 108.772,39.5998 103.5,40.5C 103.611,39.8826 103.944,39.3826 104.5,39C 109.684,38.1837 114.684,38.3503 119.5,39.5 Z"/></g>
<g><path style="opacity:1" fill="#f8fcf6" d="M 146.5,58.5 C 147.765,59.5145 148.431,61.0145 148.5,63C 146.417,79.4224 137.417,90.089 121.5,95C 117.833,95.3333 114.167,95.6667 110.5,96C 109.773,97.3988 109.273,98.8988 109,100.5C 105,96.5 101,92.5 97,88.5C 96.5439,87.2559 97.0439,86.4226 98.5,86C 102.211,85.1557 105.877,84.1557 109.5,83C 113.5,83.3333 117.5,83.6667 121.5,84C 130.915,79.4158 136.249,71.9158 137.5,61.5C 139.5,63.5 141.5,65.5 143.5,67.5C 145.365,64.7745 146.365,61.7745 146.5,58.5 Z"/></g>
<g><path style="opacity:0.643" fill="#beddab" d="M 13.5,74.5 C 13.762,75.9778 13.4287,77.3112 12.5,78.5C 11.5113,80.5862 10.178,82.2529 8.5,83.5C 9.40975,80.0078 11.0764,77.0078 13.5,74.5 Z"/></g>
<g><path style="opacity:1" fill="#f6fbf4" d="M 90.5,108.5 C 90.1866,111.247 90.52,113.914 91.5,116.5C 95.2623,114.91 98.7623,115.243 102,117.5C 103.404,123.044 103.904,128.71 103.5,134.5C 102.167,134.5 100.833,134.5 99.5,134.5C 99.6658,129.821 99.4992,125.155 99,120.5C 96.4651,118.201 93.7984,118.201 91,120.5C 90.5008,125.155 90.3342,129.821 90.5,134.5C 89.5,134.5 88.5,134.5 87.5,134.5C 87.5,125.833 87.5,117.167 87.5,108.5C 88.5,108.5 89.5,108.5 90.5,108.5 Z"/></g>
<g><path style="opacity:1" fill="#f0f8ec" d="M 171.5,108.5 C 172.833,108.5 174.167,108.5 175.5,108.5C 175.666,117.173 175.5,125.84 175,134.5C 173.989,135.337 172.822,135.67 171.5,135.5C 171.5,126.5 171.5,117.5 171.5,108.5 Z"/></g>
<g><path style="opacity:1" fill="#f4faf0" d="M 45.5,112.5 C 42.8333,112.5 40.1667,112.5 37.5,112.5C 37.5,119.833 37.5,127.167 37.5,134.5C 36.1667,134.5 34.8333,134.5 33.5,134.5C 33.5,127.167 33.5,119.833 33.5,112.5C 30.5,112.5 27.5,112.5 24.5,112.5C 24.5,111.5 24.5,110.5 24.5,109.5C 31.8333,109.5 39.1667,109.5 46.5,109.5C 46.7373,110.791 46.404,111.791 45.5,112.5 Z"/></g>
<g><path style="opacity:1" fill="#f1f8ed" d="M 113.5,109.5 C 117.846,109.334 122.179,109.501 126.5,110C 129.035,110.928 130.035,112.762 129.5,115.5C 126.903,115.357 124.569,114.523 122.5,113C 113.767,112.492 110.267,116.658 112,125.5C 114.402,131.092 118.569,132.925 124.5,131C 125.9,129.562 127.567,128.729 129.5,128.5C 129.838,131.325 128.838,133.492 126.5,135C 114.419,137.902 108.086,133.236 107.5,121C 107.551,116.061 109.551,112.228 113.5,109.5 Z"/></g>
<g><path style="opacity:1" fill="#b6de9f" d="M 24.5,112.5 C 27.5,112.5 30.5,112.5 33.5,112.5C 33.5,119.833 33.5,127.167 33.5,134.5C 34.8333,134.5 36.1667,134.5 37.5,134.5C 37.5,127.167 37.5,119.833 37.5,112.5C 40.1667,112.5 42.8333,112.5 45.5,112.5C 43.7211,114.344 41.3878,115.01 38.5,114.5C 38.5,121.5 38.5,128.5 38.5,135.5C 36.5,135.5 34.5,135.5 32.5,135.5C 32.5,128.167 32.5,120.833 32.5,113.5C 29.6146,113.806 26.9479,113.473 24.5,112.5 Z"/></g>
<g><path style="opacity:1" fill="#eef7e9" d="M 51.5,115.5 C 61.0006,113.352 65.6673,117.019 65.5,126.5C 60.7863,126.173 56.1196,126.507 51.5,127.5C 52.3128,128.814 53.3128,129.981 54.5,131C 57.8492,131.388 61.1825,131.221 64.5,130.5C 64.7135,132.144 64.3802,133.644 63.5,135C 50.2103,137.04 45.377,131.54 49,118.5C 50.045,117.627 50.8783,116.627 51.5,115.5 Z"/></g>
<g><path style="opacity:1" fill="#f1f8ed" d="M 72.5,115.5 C 75.5184,115.335 78.5184,115.502 81.5,116C 83.4206,117.241 83.754,118.741 82.5,120.5C 78.6033,117.518 75.1033,117.852 72,121.5C 70.881,131.233 74.7143,134.233 83.5,130.5C 83.7135,132.144 83.3802,133.644 82.5,135C 70.8637,137.152 66.0304,132.319 68,120.5C 69.3657,118.638 70.8657,116.972 72.5,115.5 Z"/></g>
<g><path style="opacity:1" fill="#f2f9ee" d="M 131.5,115.5 C 132.978,115.238 134.311,115.571 135.5,116.5C 137.317,120.111 138.984,123.778 140.5,127.5C 141.89,123.719 143.557,120.053 145.5,116.5C 146.689,115.571 148.022,115.238 149.5,115.5C 146.498,124.333 142.998,133 139,141.5C 137.989,142.337 136.822,142.67 135.5,142.5C 135.405,139.285 136.405,136.451 138.5,134C 135.196,128.22 132.862,122.054 131.5,115.5 Z"/></g>
<g><path style="opacity:1" fill="#f1f8ec" d="M 156.5,115.5 C 159.85,115.335 163.183,115.502 166.5,116C 168.037,117.11 168.703,118.61 168.5,120.5C 165.451,119.899 162.451,119.399 159.5,119C 157.115,120.463 156.115,122.629 156.5,125.5C 156.326,127.693 156.993,129.527 158.5,131C 161.849,131.388 165.183,131.221 168.5,130.5C 168.191,134.792 165.858,136.459 161.5,135.5C 158.585,135.424 156.085,134.424 154,132.5C 151.423,126.236 152.256,120.569 156.5,115.5 Z"/></g>
<g><path style="opacity:1" fill="#eef7e9" d="M 183.5,115.5 C 193.001,113.352 197.667,117.019 197.5,126.5C 192.786,126.173 188.12,126.507 183.5,127.5C 184.313,128.814 185.313,129.981 186.5,131C 189.849,131.388 193.183,131.221 196.5,130.5C 196.714,132.144 196.38,133.644 195.5,135C 182.21,137.04 177.377,131.54 181,118.5C 182.045,117.627 182.878,116.627 183.5,115.5 Z"/></g>
<g><path style="opacity:1" fill="#bbde9e" d="M 219.5,112.5 C 216.337,119.496 212.671,126.162 208.5,132.5C 208.626,128.756 209.959,125.59 212.5,123C 211.373,121.943 210.873,120.777 211,119.5C 212.183,120.731 213.349,120.731 214.5,119.5C 215.446,116.578 217.113,114.244 219.5,112.5 Z"/></g>
<g><path style="opacity:1" fill="#96ce74" d="M 54.5,118.5 C 58.2407,117.599 60.2407,118.932 60.5,122.5C 57.4816,122.665 54.4816,122.498 51.5,122C 52.7101,120.961 53.7101,119.794 54.5,118.5 Z"/></g>
<g><path style="opacity:1" fill="#93ce72" d="M 186.5,118.5 C 189.278,118.022 191.278,119.022 192.5,121.5C 189.554,122.655 186.554,122.821 183.5,122C 184.71,120.961 185.71,119.794 186.5,118.5 Z"/></g>
<g><path style="opacity:1" fill="#d2eac4" d="M 90.5,108.5 C 89.5,108.5 88.5,108.5 87.5,108.5C 87.5,117.167 87.5,125.833 87.5,134.5C 86.5067,125.682 86.1734,116.682 86.5,107.5C 88.099,107.232 89.4324,107.566 90.5,108.5 Z"/></g>
</svg>
